<?xml version="1.0" encoding="utf-8"?>
<!-- Generator: Adobe Illustrator 24.3.0, SVG Export Plug-In . SVG Version: 6.00 Build 0)  -->
<svg version="1.1" id="Слой_1" xmlns="http://www.w3.org/2000/svg" xmlns:xlink="http://www.w3.org/1999/xlink" x="0px" y="0px"
	 viewBox="0 0 42 42" style="enable-background:new 0 0 42 42;" xml:space="preserve">
<style type="text/css">
	.st0{display:none;fill:#CE1717;}
	.st1{display:none;}
	.st2{display:inline;fill:#FFFFFF;}
	.st3{display:inline;fill:#CE1717;}
	.st4{fill:#CE1717;}
	.st5{fill:#FFFFFF;}
</style>
<rect x="472.85" y="-281.86" class="st0" width="535.09" height="535.09"/>
<g class="st1">
	<path class="st2" d="M648.43,132.29h-51.21v-299.73h51.21V132.29z"/>
	<path class="st2" d="M914.51-125.22h-86.12v257.51h-49.75v-257.51h-85.91v-42.22H914.5v42.22H914.51z"/>
</g>
<g class="st1">
	<path class="st3" d="M-640.6,122.9c-22.57,11.71-50.65,17.56-84.23,17.56c-43.48,0-78.31-13.72-104.51-41.18
		c-26.2-27.45-39.3-63.47-39.3-108.06c0-47.93,14.74-86.67,44.21-116.21c29.47-29.54,66.71-44.31,111.72-44.31
		c28.98,0,53.02,4.11,72.11,12.33v49.33c-20.21-11.98-42.5-17.98-66.89-17.98c-32.47,0-58.77,10.38-78.9,31.14
		c-20.14,20.76-30.2,48.49-30.2,83.19c0,33.02,9.41,59.33,28.22,78.9c18.81,19.58,43.54,29.37,74.2,29.37
		c28.29,0,52.81-6.69,73.57-20.07V122.9L-640.6,122.9z"/>
	<path class="st3" d="M-460.22,140.46c-43.2,0-77.79-14-103.78-42.01S-602.98,34-602.98-10.87c0-48.21,13.24-86.67,39.71-115.38
		c26.47-28.7,62.42-43.06,107.85-43.06c42.08,0,75.98,13.94,101.69,41.8c25.71,27.87,38.56,64.31,38.56,109.32
		c0,48.91-13.17,87.58-39.5,116.01C-381,126.25-416.18,140.46-460.22,140.46z M-457.92-125.62c-27.45,0-49.78,10.24-66.99,30.73
		c-17.21,20.48-25.81,47.45-25.81,80.89c0,33.31,8.36,60.13,25.08,80.47c16.72,20.35,38.6,30.52,65.63,30.52
		c28.7,0,51.35-9.68,67.93-29.05s24.87-46.47,24.87-81.31c0-35.81-8.05-63.47-24.14-82.98
		C-407.44-115.87-429.63-125.62-457.92-125.62z"/>
	<path class="st3" d="M-146.06,2.72h-64.59v132.73h-49.54v-299.74h49.54v124.16h65.84c4.18-40.55,18.57-72.22,43.16-95
		c24.59-22.78,56.61-34.17,96.04-34.17c40.97,0,73.71,13.83,98.24,41.49c24.52,27.66,36.79,64.48,36.79,110.47
		c0,49.19-12.54,87.79-37.62,115.8c-25.08,28.01-59.22,42.01-102.42,42.01c-40.27,0-72.63-12.57-97.09-37.73
		C-132.16,77.58-144.95,44.24-146.06,2.72z M-6.65-125.62c-27.45,0-48.95,9.82-64.48,29.47c-15.54,19.65-23.31,46.68-23.31,81.1
		c0,35.53,7.38,63.09,22.16,82.67C-57.51,87.2-36.75,96.99-9.99,96.99c27.73,0,49.19-9.58,64.38-28.74s22.78-46.23,22.78-81.2
		c0-36.37-7.32-64.24-21.95-83.61C40.59-115.93,19.97-125.62-6.65-125.62z"/>
	<path class="st3" d="M165.38,123.74V76.08c23.55,16.72,50.3,25.08,80.26,25.08c19.65,0,35.29-4.56,46.92-13.69
		c11.63-9.12,17.45-21.35,17.45-36.68c0-33.44-23.62-50.17-70.86-50.17h-34.49v-38.87h32.4c20.07,0,35.6-4.18,46.61-12.54
		s16.51-20.13,16.51-35.32c0-13.1-4.67-23.58-14-31.46c-9.34-7.87-22.16-11.81-38.46-11.81c-24.8,0-48.98,7.52-72.53,22.57v-44.31
		c23.13-12.12,49.81-18.18,80.05-18.18c30.1,0,53.79,6.86,71.07,20.59c17.28,13.73,25.92,31.74,25.92,54.03
		c0,38.6-19.3,62.99-57.9,73.16v0.84c20.62,2.37,37.03,10.03,49.22,22.99s18.29,28.98,18.29,48.07c0,27.45-10.24,49.33-30.73,65.63
		c-20.48,16.3-48.49,24.46-84.03,24.46C211.85,140.46,184.61,134.89,165.38,123.74z"/>
</g>
<rect transform="matrix(6.123234e-17 -1 1 6.123234e-17 0 42)" class="st4" width="42" height="42"/>
<polygon class="st5" points="7.83,31.45 7.83,23.18 20.59,11.14 33.34,23.73 33.34,31.45 20.59,18.73 "/>
</svg>
